<svg id="visual" viewBox="0 0 900 600" width="900" height="600" xmlns="http://www.w3.org/2000/svg" xmlns:xlink="http://www.w3.org/1999/xlink" version="1.1"><rect x="0" y="0" width="900" height="600" fill="#001220"></rect><path d="M0 29L21.5 29.8C43 30.7 86 32.3 128.8 32.5C171.7 32.7 214.3 31.3 257.2 31.5C300 31.7 343 33.3 385.8 33.7C428.7 34 471.3 33 514.2 32.5C557 32 600 32 642.8 34.8C685.7 37.7 728.3 43.3 771.2 44.5C814 45.7 857 42.3 878.5 40.7L900 39L900 0L878.5 0C857 0 814 0 771.2 0C728.3 0 685.7 0 642.8 0C600 0 557 0 514.2 0C471.3 0 428.7 0 385.8 0C343 0 300 0 257.2 0C214.3 0 171.7 0 128.8 0C86 0 43 0 21.5 0L0 0Z" fill="#fa7268"></path><path d="M0 36L21.5 35.8C43 35.7 86 35.3 128.8 35.7C171.7 36 214.3 37 257.2 36.7C300 36.3 343 34.7 385.8 33.8C428.7 33 471.3 33 514.2 34C557 35 600 37 642.8 36.2C685.7 35.3 728.3 31.7 771.2 31.3C814 31 857 34 878.5 35.5L900 37L900 0L878.5 0C857 0 814 0 771.2 0C728.3 0 685.7 0 642.8 0C600 0 557 0 514.2 0C471.3 0 428.7 0 385.8 0C343 0 300 0 257.2 0C214.3 0 171.7 0 128.8 0C86 0 43 0 21.5 0L0 0Z" fill="#ef5f67"></path><path d="M0 22L21.5 22.8C43 23.7 86 25.3 128.8 24.7C171.7 24 214.3 21 257.2 19.8C300 18.7 343 19.3 385.8 21.3C428.7 23.3 471.3 26.7 514.2 28.5C557 30.3 600 30.7 642.8 29.8C685.7 29 728.3 27 771.2 26.7C814 26.3 857 27.7 878.5 28.3L900 29L900 0L878.5 0C857 0 814 0 771.2 0C728.3 0 685.7 0 642.8 0C600 0 557 0 514.2 0C471.3 0 428.7 0 385.8 0C343 0 300 0 257.2 0C214.3 0 171.7 0 128.8 0C86 0 43 0 21.5 0L0 0Z" fill="#e34c67"></path><path d="M0 13L21.5 14.7C43 16.3 86 19.7 128.8 21.2C171.7 22.7 214.3 22.3 257.2 20.3C300 18.3 343 14.7 385.8 13.8C428.7 13 471.3 15 514.2 15C557 15 600 13 642.8 13.5C685.7 14 728.3 17 771.2 18.8C814 20.7 857 21.3 878.5 21.7L900 22L900 0L878.5 0C857 0 814 0 771.2 0C728.3 0 685.7 0 642.8 0C600 0 557 0 514.2 0C471.3 0 428.7 0 385.8 0C343 0 300 0 257.2 0C214.3 0 171.7 0 128.8 0C86 0 43 0 21.5 0L0 0Z" fill="#d53867"></path><path d="M0 11L21.5 11.3C43 11.7 86 12.3 128.8 11.7C171.7 11 214.3 9 257.2 8.7C300 8.3 343 9.7 385.8 10C428.7 10.3 471.3 9.7 514.2 9.8C557 10 600 11 642.8 11.7C685.7 12.3 728.3 12.7 771.2 11.8C814 11 857 9 878.5 8L900 7L900 0L878.5 0C857 0 814 0 771.2 0C728.3 0 685.7 0 642.8 0C600 0 557 0 514.2 0C471.3 0 428.7 0 385.8 0C343 0 300 0 257.2 0C214.3 0 171.7 0 128.8 0C86 0 43 0 21.5 0L0 0Z" fill="#c62368"></path></svg>